<svg width="32" height="32" viewBox="0 0 32 32" fill="none" xmlns="http://www.w3.org/2000/svg">
<path d="M16.0001 0C7.16466 0 0 7.16334 0 16.0001C0 23.0694 4.58452 29.0669 10.9419 31.1826C11.7415 31.3307 12.0351 30.8355 12.0351 30.4129C12.0351 30.0314 12.0202 28.771 12.0133 27.434C7.56209 28.4019 6.62283 25.5462 6.62283 25.5462C5.89499 23.6968 4.8463 23.2051 4.8463 23.2051C3.39461 22.212 4.95573 22.2324 4.95573 22.2324C6.56242 22.3453 7.40842 23.8812 7.40842 23.8812C8.83547 26.3273 11.1514 25.6201 12.0645 25.2113C12.2081 24.1772 12.6227 23.4713 13.0803 23.0718C9.52648 22.6672 5.7906 21.2953 5.7906 15.1645C5.7906 13.4176 6.41563 11.9903 7.43916 10.8698C7.27303 10.4668 6.72537 8.83945 7.59415 6.63555C7.59415 6.63555 8.93774 6.20552 11.9953 8.27562C13.2716 7.92111 14.6404 7.74332 16.0001 7.73723C17.3599 7.74332 18.7297 7.92111 20.0084 8.27562C23.0623 6.20552 24.404 6.63555 24.404 6.63555C25.2749 8.83945 24.727 10.4668 24.5608 10.8698C25.5868 11.9903 26.2075 13.4176 26.2075 15.1645C26.2075 21.3098 22.4645 22.663 18.9017 23.0591C19.4756 23.5556 19.9869 24.5293 19.9869 26.0221C19.9869 28.1629 19.9684 29.8859 19.9684 30.4129C19.9684 30.8387 20.2564 31.3376 21.0674 31.1805C27.4213 29.0624 32 23.067 32 16.0001C32 7.16334 24.8364 0 16.0001 0ZM5.99257 22.7925C5.95733 22.872 5.83227 22.8959 5.71834 22.8413C5.60229 22.7891 5.53711 22.6807 5.57474 22.601C5.60918 22.5191 5.7345 22.4963 5.85029 22.5512C5.9666 22.6033 6.03284 22.7128 5.99257 22.7925ZM6.7796 23.4948C6.70329 23.5655 6.55412 23.5327 6.45291 23.4209C6.34825 23.3093 6.32864 23.1601 6.40601 23.0883C6.4847 23.0176 6.62937 23.0507 6.73429 23.1623C6.83895 23.2751 6.85935 23.4232 6.7796 23.4948ZM7.31953 24.3933C7.2215 24.4614 7.0612 24.3975 6.96211 24.2553C6.86407 24.113 6.86407 23.9423 6.96422 23.874C7.06358 23.8056 7.2215 23.8671 7.32191 24.0083C7.41968 24.153 7.41968 24.3236 7.31953 24.3933ZM8.23267 25.4339C8.14497 25.5306 7.95818 25.5046 7.82146 25.3727C7.68156 25.2437 7.64261 25.0606 7.73058 24.9639C7.81934 24.8669 8.00719 24.8942 8.14497 25.0251C8.28381 25.1538 8.3262 25.3382 8.23267 25.4339ZM9.41281 25.7852C9.37413 25.9105 9.19423 25.9675 9.013 25.9142C8.83203 25.8594 8.7136 25.7126 8.75016 25.5859C8.78778 25.4598 8.96848 25.4005 9.15104 25.4574C9.33174 25.512 9.45044 25.6577 9.41281 25.7852ZM10.7559 25.9342C10.7604 26.0662 10.6067 26.1756 10.4165 26.178C10.2252 26.1822 10.0704 26.0754 10.0683 25.9456C10.0683 25.8123 10.2185 25.704 10.4098 25.7008C10.6001 25.6971 10.7559 25.8031 10.7559 25.9342ZM12.0753 25.8836C12.0981 26.0124 11.9658 26.1446 11.7769 26.1798C11.5912 26.2138 11.4192 26.1343 11.3957 26.0066C11.3726 25.8746 11.5072 25.7424 11.6927 25.7082C11.8819 25.6754 12.0512 25.7527 12.0753 25.8836Z" fill="white"/>
</svg>
